<?xml version="1.0" encoding="UTF-8"?>
<svg id="Layer_1" data-name="Layer 1" xmlns="http://www.w3.org/2000/svg" xmlns:xlink="http://www.w3.org/1999/xlink" viewBox="0 0 160 160">
  <defs>
    <style>
      .cls-1 {
        fill: url(#linear-gradient-15);
      }

      .cls-2 {
        fill: url(#linear-gradient-13);
      }

      .cls-3 {
        fill: url(#linear-gradient-2);
      }

      .cls-4 {
        fill: url(#linear-gradient-10);
      }

      .cls-5 {
        fill: url(#linear-gradient-12);
      }

      .cls-6 {
        fill: url(#linear-gradient-4);
      }

      .cls-7 {
        fill: url(#linear-gradient-3);
      }

      .cls-8 {
        fill: url(#linear-gradient-5);
      }

      .cls-9 {
        fill: url(#linear-gradient-22);
      }

      .cls-10 {
        fill: url(#linear-gradient-8);
      }

      .cls-11 {
        fill: url(#linear-gradient-14);
      }

      .cls-12 {
        fill: url(#linear-gradient-20);
      }

      .cls-13 {
        fill: url(#linear-gradient-17);
      }

      .cls-14 {
        fill: url(#linear-gradient-7);
      }

      .cls-15 {
        fill: url(#linear-gradient-9);
      }

      .cls-16 {
        fill: url(#linear-gradient-11);
      }

      .cls-17 {
        fill: url(#linear-gradient-19);
      }

      .cls-18 {
        fill: url(#linear-gradient-6);
      }

      .cls-19 {
        fill: url(#linear-gradient-21);
      }

      .cls-20 {
        fill: url(#linear-gradient-16);
      }

      .cls-21 {
        fill: url(#linear-gradient);
      }

      .cls-22 {
        fill: url(#linear-gradient-23);
      }

      .cls-23 {
        fill: url(#linear-gradient-18);
      }
    </style>
    <linearGradient id="linear-gradient" x1="35.89" y1="-10.39" x2="143.14" y2="141.95" gradientTransform="translate(11.9 -18.19) rotate(18.08)" gradientUnits="userSpaceOnUse">
      <stop offset="0" stop-color="#fff"/>
      <stop offset="1" stop-color="#000"/>
    </linearGradient>
    <linearGradient id="linear-gradient-2" x1="22.12" y1="-.69" x2="129.36" y2="151.65" gradientTransform="translate(30.42 -21.34) rotate(36.08)" xlink:href="#linear-gradient"/>
    <linearGradient id="linear-gradient-3" x1="8.41" y1="8.96" x2="115.65" y2="161.3" gradientTransform="translate(53.79 -9.24) rotate(54.07)" xlink:href="#linear-gradient"/>
    <linearGradient id="linear-gradient-4" x1="-3.88" y1="17.61" x2="103.36" y2="169.95" gradientTransform="translate(79.73 16.9) rotate(72.07)" xlink:href="#linear-gradient"/>
    <linearGradient id="linear-gradient-5" x1="-13.56" y1="24.43" x2="93.68" y2="176.77" gradientTransform="translate(105.69 54.55) rotate(90.06)" xlink:href="#linear-gradient"/>
    <linearGradient id="linear-gradient-6" x1="-19.68" y1="28.74" x2="87.56" y2="181.07" gradientTransform="translate(129.14 100) rotate(108.06)" xlink:href="#linear-gradient"/>
    <linearGradient id="linear-gradient-7" x1="-21.64" y1="30.11" x2="85.61" y2="182.45" gradientTransform="translate(147.78 148.82) rotate(126.05)" xlink:href="#linear-gradient"/>
    <linearGradient id="linear-gradient-8" x1="-19.24" y1="28.43" x2="88" y2="180.76" gradientTransform="translate(159.79 196.23) rotate(144.05)" xlink:href="#linear-gradient"/>
    <linearGradient id="linear-gradient-9" x1="-12.73" y1="23.84" x2="94.51" y2="176.18" gradientTransform="translate(164 237.59) rotate(162.05)" xlink:href="#linear-gradient"/>
    <linearGradient id="linear-gradient-10" x1="-2.74" y1="16.81" x2="104.5" y2="169.15" gradientTransform="translate(159.98 268.86) rotate(-179.96)" xlink:href="#linear-gradient"/>
    <linearGradient id="linear-gradient-11" x1="9.76" y1="8.01" x2="117" y2="160.35" gradientTransform="translate(148.14 286.96) rotate(-161.96)" xlink:href="#linear-gradient"/>
    <linearGradient id="linear-gradient-12" x1="23.53" y1="-1.68" x2="130.77" y2="150.65" gradientTransform="translate(129.63 290.14) rotate(-143.97)" xlink:href="#linear-gradient"/>
    <linearGradient id="linear-gradient-13" x1="37.24" y1="-11.33" x2="144.48" y2="141" gradientTransform="translate(106.27 278.09) rotate(-125.97)" xlink:href="#linear-gradient"/>
    <linearGradient id="linear-gradient-14" x1="49.54" y1="-19.99" x2="156.78" y2="132.35" gradientTransform="translate(80.34 251.97) rotate(-107.97)" xlink:href="#linear-gradient"/>
    <linearGradient id="linear-gradient-15" x1="59.22" y1="-26.81" x2="166.46" y2="125.53" gradientTransform="translate(54.37 214.35) rotate(-89.98)" xlink:href="#linear-gradient"/>
    <linearGradient id="linear-gradient-16" x1="65.35" y1="-31.12" x2="172.59" y2="121.21" gradientTransform="translate(30.91 168.91) rotate(-71.98)" xlink:href="#linear-gradient"/>
    <linearGradient id="linear-gradient-17" x1="67.32" y1="-32.51" x2="174.56" y2="119.83" gradientTransform="translate(12.25 120.09) rotate(-53.99)" xlink:href="#linear-gradient"/>
    <linearGradient id="linear-gradient-18" x1="64.93" y1="-30.83" x2="172.17" y2="121.51" gradientTransform="translate(.23 72.67) rotate(-35.99)" xlink:href="#linear-gradient"/>
    <linearGradient id="linear-gradient-19" x1="58.43" y1="-26.25" x2="165.67" y2="126.09" gradientTransform="translate(-4 31.29) rotate(-18)" xlink:href="#linear-gradient"/>
    <linearGradient id="linear-gradient-20" x1="48.45" y1="-19.22" x2="155.69" y2="133.11" gradientTransform="matrix(1,0,0,1,0,0)" xlink:href="#linear-gradient"/>
    <linearGradient id="linear-gradient-21" x1="11.45" y1="6.82" x2="118.69" y2="159.16" gradientTransform="matrix(1,0,0,1,0,0)" xlink:href="#linear-gradient"/>
    <linearGradient id="linear-gradient-22" x1="20.29" y1=".6" x2="127.53" y2="152.94" gradientTransform="matrix(1,0,0,1,0,0)" xlink:href="#linear-gradient"/>
    <linearGradient id="linear-gradient-23" x1="27.22" y1="-4.28" x2="134.46" y2="148.06" gradientTransform="matrix(1,0,0,1,0,0)" xlink:href="#linear-gradient"/>
  </defs>
  <rect class="cls-21" x="60.72" y="2.69" width="4.8" height="51.2" transform="translate(-5.66 20.99) rotate(-18.08)"/>
  <rect class="cls-3" x="45.57" y="10.43" width="4.8" height="51.2" transform="translate(-12.02 35.16) rotate(-36.08)"/>
  <rect class="cls-7" x="33.55" y="22.48" width="4.8" height="51.2" transform="translate(-24.08 48.98) rotate(-54.07)"/>
  <rect class="cls-6" x="25.84" y="37.65" width="4.8" height="51.2" transform="translate(-40.63 70.65) rotate(-72.07)"/>
  <rect class="cls-8" x="23.2" y="54.46" width="4.8" height="51.2" transform="translate(-54.43 105.75) rotate(-90.06)"/>
  <rect class="cls-18" x="25.88" y="71.26" width="4.8" height="51.2" transform="translate(-55.04 153.78) rotate(-108.06)"/>
  <rect class="cls-14" x="33.62" y="86.42" width="4.8" height="51.2" transform="translate(-33.34 207.07) rotate(-126.05)"/>
  <rect class="cls-10" x="45.66" y="98.44" width="4.8" height="51.2" transform="translate(14.16 252.67) rotate(-144.05)"/>
  <rect class="cls-15" x="60.83" y="106.15" width="4.8" height="51.2" transform="translate(82.77 276.58) rotate(-162.05)"/>
  <rect class="cls-4" x="77.64" y="108.8" width="4.8" height="51.2" transform="translate(160.18 268.74) rotate(179.96)"/>
  <rect class="cls-16" x="94.45" y="106.13" width="4.8" height="51.2" transform="translate(229.72 226.99) rotate(161.96)"/>
  <rect class="cls-5" x="109.6" y="98.39" width="4.8" height="51.2" transform="translate(275.51 158.37) rotate(143.97)"/>
  <rect class="cls-2" x="121.63" y="86.35" width="4.8" height="51.2" transform="translate(287.48 77.33) rotate(125.97)"/>
  <rect class="cls-11" x="129.34" y="71.19" width="4.8" height="51.2" transform="translate(264.46 1.34) rotate(107.97)"/>
  <rect class="cls-1" x="132" y="54.38" width="4.8" height="51.2" transform="translate(214.33 -54.45) rotate(89.98)"/>
  <rect class="cls-20" x="129.33" y="37.58" width="4.8" height="51.2" transform="translate(151.06 -81.64) rotate(71.98)"/>
  <rect class="cls-13" x="121.6" y="22.42" width="4.8" height="51.2" transform="translate(89.93 -80.52) rotate(53.99)"/>
  <rect class="cls-23" x="109.57" y="10.39" width="4.8" height="51.2" transform="translate(42.52 -58.93) rotate(35.99)"/>
  <rect class="cls-17" x="94.41" y="2.66" width="4.8" height="51.2" transform="translate(13.47 -28.53) rotate(18)"/>
  <rect class="cls-12" x="77.6" y="0" width="4.8" height="51.2"/>
  <g>
    <path class="cls-19" d="M60.02,91.89v-26.14h4.23v26.14h-4.23Z"/>
    <path class="cls-9" d="M70.85,91.89v-15.37h-3.58v-3.3h3.64v-3.89c0-1.2.33-2.1.98-2.69.65-.59,1.56-.89,2.72-.89h5.26v3.3h-4.82v4.17h4.45v3.3h-4.42v15.37h-4.23Z"/>
    <path class="cls-22" d="M83.42,99.36v-21.88h-2.15v-4.26h4.42v2.96h1.31c.62-1.08,1.48-1.9,2.58-2.47s2.42-.86,3.95-.86c1.89,0,3.49.4,4.81,1.2,1.32.8,2.32,1.92,3.02,3.38s1.04,3.16,1.04,5.13-.34,3.69-1.01,5.15c-.67,1.46-1.65,2.59-2.92,3.38s-2.81,1.18-4.59,1.18c-1.41,0-2.64-.28-3.69-.83-1.05-.55-1.85-1.33-2.41-2.35h-.13v10.27h-4.23ZM92.78,88.63c1.74,0,3.08-.54,4-1.62.92-1.08,1.39-2.56,1.39-4.45s-.46-3.37-1.39-4.45-2.26-1.62-4-1.62c-1.56,0-2.8.45-3.73,1.34s-1.4,2.09-1.4,3.61v2.24c0,1.51.47,2.72,1.4,3.61.93.89,2.18,1.34,3.73,1.34Z"/>
  </g>
</svg>