<?xml version="1.0" encoding="UTF-8"?>
<svg id="Layer_1" data-name="Layer 1" xmlns="http://www.w3.org/2000/svg" viewBox="0 0 160 160">
  <rect x="60.72" y="2.69" width="4.8" height="51.2" transform="translate(-5.66 20.99) rotate(-18.08)"/>
  <rect x="45.57" y="10.43" width="4.8" height="51.2" transform="translate(-12.02 35.16) rotate(-36.08)"/>
  <rect x="33.55" y="22.48" width="4.8" height="51.2" transform="translate(-24.08 48.98) rotate(-54.07)"/>
  <rect x="25.84" y="37.65" width="4.8" height="51.2" transform="translate(-40.63 70.65) rotate(-72.07)"/>
  <rect x="23.2" y="54.46" width="4.8" height="51.2" transform="translate(-54.43 105.75) rotate(-90.06)"/>
  <rect x="25.88" y="71.26" width="4.8" height="51.2" transform="translate(-55.04 153.78) rotate(-108.06)"/>
  <rect x="33.62" y="86.42" width="4.8" height="51.2" transform="translate(-33.34 207.07) rotate(-126.05)"/>
  <rect x="45.66" y="98.44" width="4.8" height="51.2" transform="translate(14.16 252.67) rotate(-144.05)"/>
  <rect x="60.83" y="106.15" width="4.8" height="51.2" transform="translate(82.77 276.58) rotate(-162.05)"/>
  <rect x="77.64" y="108.8" width="4.8" height="51.2" transform="translate(160.18 268.74) rotate(179.96)"/>
  <rect x="94.45" y="106.13" width="4.8" height="51.2" transform="translate(229.72 226.99) rotate(161.96)"/>
  <rect x="109.6" y="98.39" width="4.8" height="51.2" transform="translate(275.51 158.37) rotate(143.97)"/>
  <rect x="121.63" y="86.35" width="4.8" height="51.2" transform="translate(287.48 77.33) rotate(125.97)"/>
  <rect x="129.34" y="71.19" width="4.8" height="51.2" transform="translate(264.46 1.34) rotate(107.97)"/>
  <rect x="132" y="54.38" width="4.8" height="51.2" transform="translate(214.33 -54.45) rotate(89.98)"/>
  <rect x="129.33" y="37.58" width="4.8" height="51.2" transform="translate(151.06 -81.64) rotate(71.98)"/>
  <rect x="121.6" y="22.42" width="4.8" height="51.2" transform="translate(89.93 -80.52) rotate(53.99)"/>
  <rect x="109.57" y="10.39" width="4.8" height="51.2" transform="translate(42.52 -58.93) rotate(35.99)"/>
  <rect x="94.41" y="2.66" width="4.8" height="51.2" transform="translate(13.47 -28.53) rotate(18)"/>
  <rect x="77.6" y="0" width="4.8" height="51.2"/>
  <g>
    <path d="M60.02,91.89v-26.14h4.23v26.14h-4.23Z"/>
    <path d="M70.85,91.89v-15.37h-3.58v-3.3h3.64v-3.89c0-1.2.33-2.1.98-2.69.65-.59,1.56-.89,2.72-.89h5.26v3.3h-4.82v4.17h4.45v3.3h-4.42v15.37h-4.23Z"/>
    <path d="M83.42,99.36v-21.88h-2.15v-4.26h4.42v2.96h1.31c.62-1.08,1.48-1.9,2.58-2.47s2.42-.86,3.95-.86c1.89,0,3.49.4,4.81,1.2,1.32.8,2.32,1.92,3.02,3.38s1.04,3.16,1.04,5.13-.34,3.69-1.01,5.15c-.67,1.46-1.65,2.59-2.92,3.38s-2.81,1.18-4.59,1.18c-1.41,0-2.64-.28-3.69-.83-1.05-.55-1.85-1.33-2.41-2.35h-.13v10.27h-4.23ZM92.78,88.63c1.74,0,3.08-.54,4-1.62.92-1.08,1.39-2.56,1.39-4.45s-.46-3.37-1.39-4.45-2.26-1.62-4-1.62c-1.56,0-2.8.45-3.73,1.34s-1.4,2.09-1.4,3.61v2.24c0,1.51.47,2.72,1.4,3.61.93.89,2.18,1.34,3.73,1.34Z"/>
  </g>
</svg>