<?xml version="1.0" encoding="UTF-8"?>
<svg id="Layer_1" data-name="Layer 1" xmlns="http://www.w3.org/2000/svg" viewBox="0 0 16 16">
  <path d="M8,5.75c-1.24,0-2.25,1.01-2.25,2.25s1.01,2.25,2.25,2.25,2.25-1.01,2.25-2.25-1.01-2.25-2.25-2.25ZM8,9.75c-.97,0-1.75-.78-1.75-1.75s.78-1.75,1.75-1.75,1.75.78,1.75,1.75-.78,1.75-1.75,1.75Z"/>
  <rect x="6.07" y=".27" width=".48" height="5.12" transform="translate(-.57 2.1) rotate(-18.08)"/>
  <rect x="4.56" y="1.04" width=".48" height="5.12" transform="translate(-1.2 3.52) rotate(-36.08)"/>
  <rect x="3.36" y="2.25" width=".48" height="5.12" transform="translate(-2.41 4.9) rotate(-54.07)"/>
  <rect x="2.58" y="3.77" width=".48" height="5.12" transform="translate(-4.06 7.06) rotate(-72.07)"/>
  <rect x="2.32" y="5.45" width=".48" height="5.12" transform="translate(-5.44 10.58) rotate(-90.06)"/>
  <rect x=".27" y="9.45" width="5.12" height=".48" transform="translate(-2.86 1.35) rotate(-18.06)"/>
  <rect x="1.04" y="10.96" width="5.12" height=".48" transform="translate(-5.9 4.27) rotate(-36.05)"/>
  <rect x="2.25" y="12.16" width="5.12" height=".48" transform="translate(-8.06 9.01) rotate(-54.05)"/>
  <rect x="3.76" y="12.94" width="5.12" height=".48" transform="translate(-8.16 15.13) rotate(-72.05)"/>
  <rect x="7.76" y="10.88" width=".48" height="5.12" transform="translate(16.02 26.87) rotate(179.96)"/>
  <rect x="9.44" y="10.61" width=".48" height="5.12" transform="translate(-3.6 3.65) rotate(-18.04)"/>
  <rect x="10.96" y="9.84" width=".48" height="5.12" transform="translate(-5.15 8.96) rotate(-36.03)"/>
  <rect x="12.16" y="8.64" width=".48" height="5.12" transform="translate(-3.94 14.66) rotate(-54.03)"/>
  <rect x="12.93" y="7.12" width=".48" height="5.12" transform="translate(-.1 19.22) rotate(-72.03)"/>
  <rect x="13.2" y="5.44" width=".48" height="5.12" transform="translate(21.43 -5.44) rotate(89.98)"/>
  <rect x="10.61" y="6.08" width="5.12" height=".48" transform="translate(-1.31 4.38) rotate(-18.02)"/>
  <rect x="9.84" y="4.56" width="5.12" height=".48" transform="translate(-.45 8.21) rotate(-36.01)"/>
  <rect x="8.64" y="3.36" width="5.12" height=".48" transform="translate(1.71 10.54) rotate(-54.01)"/>
  <rect x="7.12" y="2.59" width="5.12" height=".48" transform="translate(4 11.16) rotate(-72)"/>
  <rect x="7.76" y="0" width=".48" height="5.12"/>
</svg>