<?xml version="1.0" encoding="UTF-8"?>
<svg id="Layer_1" data-name="Layer 1" xmlns="http://www.w3.org/2000/svg" viewBox="0 0 128 128">
  <path d="M64,46c-9.94,0-18,8.06-18,18s8.06,18,18,18,18-8.06,18-18-8.06-18-18-18ZM64,78c-7.73,0-14-6.27-14-14s6.27-14,14-14,14,6.27,14,14-6.27,14-14,14Z"/>
  <rect x="48.57" y="2.15" width="3.84" height="40.96" transform="translate(-4.53 16.79) rotate(-18.08)"/>
  <rect x="36.45" y="8.35" width="3.84" height="40.96" transform="translate(-9.62 28.12) rotate(-36.08)"/>
  <rect x="26.84" y="17.98" width="3.84" height="40.96" transform="translate(-19.26 39.18) rotate(-54.07)"/>
  <rect x="20.68" y="30.12" width="3.84" height="40.96" transform="translate(-32.5 56.52) rotate(-72.07)"/>
  <rect x="18.56" y="43.57" width="3.84" height="40.96" transform="translate(-43.54 84.6) rotate(-90.06)"/>
  <rect x="2.15" y="75.57" width="40.96" height="3.84" transform="translate(-22.91 10.83) rotate(-18.06)"/>
  <rect x="8.34" y="87.69" width="40.96" height="3.84" transform="translate(-47.22 34.13) rotate(-36.05)"/>
  <rect x="17.97" y="97.31" width="40.96" height="3.84" transform="translate(-64.45 72.1) rotate(-54.05)"/>
  <rect x="30.11" y="103.48" width="40.96" height="3.84" transform="translate(-65.27 121.03) rotate(-72.05)"/>
  <rect x="62.11" y="87.04" width="3.84" height="40.96" transform="translate(128.14 214.99) rotate(179.96)"/>
  <rect x="75.56" y="84.9" width="3.84" height="40.96" transform="translate(-28.82 29.17) rotate(-18.04)"/>
  <rect x="87.68" y="78.71" width="3.84" height="40.96" transform="translate(-41.21 71.69) rotate(-36.03)"/>
  <rect x="97.3" y="69.08" width="3.84" height="40.96" transform="translate(-31.54 117.26) rotate(-54.03)"/>
  <rect x="103.48" y="56.95" width="3.84" height="40.96" transform="translate(-.78 153.79) rotate(-72.03)"/>
  <rect x="105.6" y="43.5" width="3.84" height="40.96" transform="translate(171.46 -43.56) rotate(89.98)"/>
  <rect x="84.91" y="48.62" width="40.96" height="3.84" transform="translate(-10.46 35.07) rotate(-18.02)"/>
  <rect x="78.72" y="36.49" width="40.96" height="3.84" transform="translate(-3.63 65.67) rotate(-36.01)"/>
  <rect x="69.1" y="26.87" width="40.96" height="3.84" transform="translate(13.64 84.35) rotate(-54.01)"/>
  <rect x="56.97" y="20.69" width="40.96" height="3.84" transform="translate(32.02 89.28) rotate(-72)"/>
  <rect x="62.08" y="0" width="3.84" height="40.96"/>
</svg>