<?xml version="1.0" encoding="UTF-8"?>
<svg id="Layer_1" data-name="Layer 1" xmlns="http://www.w3.org/2000/svg" viewBox="0 0 32 32">
  <path d="M16,11.5c-2.49,0-4.5,2.01-4.5,4.5s2.01,4.5,4.5,4.5,4.5-2.01,4.5-4.5-2.01-4.5-4.5-4.5ZM16,19.5c-1.93,0-3.5-1.57-3.5-3.5s1.57-3.5,3.5-3.5,3.5,1.57,3.5,3.5-1.57,3.5-3.5,3.5Z"/>
  <rect x="12.14" y=".54" width=".96" height="10.24" transform="translate(-1.13 4.2) rotate(-18.08)"/>
  <rect x="9.11" y="2.09" width=".96" height="10.24" transform="translate(-2.4 7.03) rotate(-36.08)"/>
  <rect x="6.71" y="4.5" width=".96" height="10.24" transform="translate(-4.82 9.8) rotate(-54.07)"/>
  <rect x="5.17" y="7.53" width=".96" height="10.24" transform="translate(-8.13 14.13) rotate(-72.07)"/>
  <rect x="4.64" y="10.89" width=".96" height="10.24" transform="translate(-10.89 21.15) rotate(-90.06)"/>
  <rect x=".54" y="18.89" width="10.24" height=".96" transform="translate(-5.73 2.71) rotate(-18.06)"/>
  <rect x="2.08" y="21.92" width="10.24" height=".96" transform="translate(-11.81 8.53) rotate(-36.05)"/>
  <rect x="4.49" y="24.33" width="10.24" height=".96" transform="translate(-16.11 18.03) rotate(-54.05)"/>
  <rect x="7.53" y="25.87" width="10.24" height=".96" transform="translate(-16.32 30.26) rotate(-72.05)"/>
  <rect x="15.53" y="21.76" width=".96" height="10.24" transform="translate(32.04 53.75) rotate(179.96)"/>
  <rect x="18.89" y="21.23" width=".96" height="10.24" transform="translate(-7.21 7.29) rotate(-18.04)"/>
  <rect x="21.92" y="19.68" width=".96" height="10.24" transform="translate(-10.3 17.92) rotate(-36.03)"/>
  <rect x="24.33" y="17.27" width=".96" height="10.24" transform="translate(-7.89 29.31) rotate(-54.03)"/>
  <rect x="25.87" y="14.24" width=".96" height="10.24" transform="translate(-.19 38.45) rotate(-72.03)"/>
  <rect x="26.4" y="10.88" width=".96" height="10.24" transform="translate(42.87 -10.89) rotate(89.98)"/>
  <rect x="21.23" y="12.15" width="10.24" height=".96" transform="translate(-2.62 8.77) rotate(-18.02)"/>
  <rect x="19.68" y="9.12" width="10.24" height=".96" transform="translate(-.91 16.42) rotate(-36.01)"/>
  <rect x="17.27" y="6.72" width="10.24" height=".96" transform="translate(3.41 21.09) rotate(-54.01)"/>
  <rect x="14.24" y="5.17" width="10.24" height=".96" transform="translate(8 22.32) rotate(-72)"/>
  <rect x="15.52" y="0" width=".96" height="10.24"/>
</svg>