<?xml version="1.0" encoding="UTF-8"?>
<svg id="Layer_1" data-name="Layer 1" xmlns="http://www.w3.org/2000/svg" xmlns:xlink="http://www.w3.org/1999/xlink" viewBox="0 0 1200 630">
  <defs>
    <style>
      .cls-1 {
        fill: #fff;
      }

      .cls-2 {
        opacity: .6;
      }
    </style>
  </defs>
  <rect class="cls-1" x="-.5" y="-.5" width="1201" height="631"/>
  <g>
    <g>
      <g>
        <path d="M473.65,372.55c-1.84,0-3.44-.37-4.8-1.12-1.36-.74-2.41-1.8-3.15-3.17-.73-1.37-1.1-2.98-1.1-4.81s.36-3.42,1.09-4.77c.72-1.34,1.75-2.38,3.09-3.12s2.91-1.1,4.72-1.1,3.24.34,4.49,1.03,2.23,1.66,2.91,2.93c.69,1.27,1.03,2.77,1.03,4.51v1.45h-13.57c.15,1.58.69,2.81,1.59,3.67.91.86,2.13,1.29,3.65,1.29,1.12,0,2.04-.21,2.75-.64.71-.42,1.21-1.06,1.48-1.91h4c-.43,1.82-1.36,3.23-2.8,4.25s-3.24,1.52-5.41,1.52ZM468.49,361.63h9.68c-.15-1.27-.64-2.26-1.45-2.94-.81-.69-1.88-1.03-3.22-1.03s-2.44.34-3.3,1.03c-.87.69-1.44,1.67-1.71,2.94Z"/>
        <path d="M486.26,372.21v-13.42h-2v-3.97h4.12v2.75h1.33c.54-.99,1.3-1.74,2.27-2.27.98-.53,2.16-.8,3.55-.8s2.55.26,3.52.78c.98.52,1.76,1.3,2.36,2.35h.09c1.28-2.09,3.27-3.13,5.97-3.13,2.18,0,3.9.63,5.16,1.9,1.26,1.27,1.88,2.99,1.88,5.17v10.64h-3.94v-9.94c0-2.86-1.37-4.29-4.12-4.29s-4.12,1.43-4.12,4.29v9.94h-3.94v-9.94c0-2.86-1.38-4.29-4.15-4.29-1.33,0-2.34.36-3.03,1.09-.69.73-1.03,1.79-1.03,3.2v9.94h-3.94Z"/>
        <path d="M519.68,379.16v-20.38h-2v-3.97h4.12v2.75h1.22c.58-1,1.38-1.77,2.41-2.3,1.02-.53,2.25-.8,3.68-.8,1.76,0,3.25.37,4.48,1.12,1.23.74,2.16,1.79,2.81,3.14.65,1.35.97,2.95.97,4.78s-.31,3.44-.94,4.8c-.63,1.36-1.54,2.41-2.72,3.15-1.19.73-2.61,1.1-4.28,1.1-1.31,0-2.46-.26-3.44-.77s-1.72-1.24-2.25-2.19h-.12v9.57h-3.94ZM528.4,369.16c1.62,0,2.86-.5,3.72-1.51.86-1,1.29-2.39,1.29-4.15s-.43-3.14-1.29-4.15c-.86-1-2.1-1.51-3.72-1.51-1.45,0-2.61.42-3.48,1.25-.87.83-1.3,1.95-1.3,3.36v2.09c0,1.41.43,2.53,1.3,3.36.87.83,2.03,1.25,3.48,1.25Z"/>
        <path d="M548.84,372.55c-1.84,0-3.44-.37-4.8-1.12-1.36-.74-2.42-1.79-3.17-3.14s-1.13-2.95-1.13-4.78.37-3.43,1.12-4.78c.74-1.35,1.8-2.4,3.17-3.14,1.37-.74,2.99-1.12,4.84-1.12s3.49.37,4.84,1.1,2.4,1.78,3.13,3.13c.73,1.35,1.1,2.96,1.1,4.81s-.37,3.44-1.12,4.8c-.74,1.36-1.79,2.41-3.15,3.15s-2.97,1.1-4.84,1.1ZM548.84,369.13c1.64,0,2.91-.5,3.81-1.51.9-1.01,1.35-2.39,1.35-4.15s-.45-3.13-1.35-4.12c-.9-.99-2.17-1.48-3.81-1.48s-2.89.5-3.8,1.49c-.91,1-1.36,2.36-1.36,4.1s.45,3.14,1.36,4.15c.91,1,2.17,1.51,3.8,1.51Z"/>
        <path d="M564.63,372.21l-5.56-17.39h4.06l3.8,12.55h.14l4.43-12.55h3.88l4.46,12.55h.15l3.8-12.55h4l-5.54,17.39h-4.29l-4.49-12.41h-.12l-4.43,12.41h-4.29Z"/>
        <path d="M597.97,372.55c-1.84,0-3.44-.37-4.8-1.12-1.36-.74-2.41-1.8-3.15-3.17-.73-1.37-1.1-2.98-1.1-4.81s.36-3.42,1.09-4.77c.72-1.34,1.75-2.38,3.09-3.12s2.91-1.1,4.72-1.1,3.24.34,4.49,1.03,2.23,1.66,2.91,2.93c.69,1.27,1.03,2.77,1.03,4.51v1.45h-13.57c.15,1.58.69,2.81,1.59,3.67.91.86,2.13,1.29,3.65,1.29,1.12,0,2.04-.21,2.75-.64.71-.42,1.21-1.06,1.48-1.91h4c-.43,1.82-1.36,3.23-2.8,4.25s-3.24,1.52-5.41,1.52ZM592.81,361.63h9.68c-.15-1.27-.64-2.26-1.45-2.94-.81-.69-1.88-1.03-3.22-1.03s-2.44.34-3.3,1.03c-.87.69-1.44,1.67-1.71,2.94Z"/>
        <path d="M610.87,372.21v-13.42h-2v-3.97h4.12v3.33h1.22c.46-1.14,1.2-2.01,2.22-2.61,1.01-.6,2.18-.9,3.49-.9h1.45v3.39h-1.62c-1.64,0-2.88.47-3.72,1.42s-1.26,2.21-1.26,3.8v8.96h-3.88Z"/>
        <path d="M626.32,352.73c-.62,0-1.15-.22-1.59-.65-.44-.44-.67-.97-.67-1.61s.22-1.15.65-1.59c.43-.44.97-.67,1.61-.67s1.15.22,1.59.65c.44.44.67.97.67,1.61s-.22,1.15-.65,1.59c-.44.44-.97.67-1.61.67ZM624.34,372.21v-17.39h3.94v17.39h-3.94Z"/>
        <path d="M633.71,372.21v-13.42h-2v-3.97h4.12v2.75h1.22c.62-.99,1.44-1.74,2.48-2.27,1.03-.53,2.29-.8,3.75-.8,2.32,0,4.13.65,5.43,1.96,1.3,1.3,1.96,3.05,1.96,5.23v10.52h-3.94v-9.83c0-1.43-.38-2.52-1.15-3.28s-1.89-1.13-3.38-1.13-2.62.38-3.39,1.13-1.16,1.85-1.16,3.28v9.83h-3.94Z"/>
        <path d="M662.72,379.51c-2.49,0-4.52-.51-6.09-1.54-1.57-1.02-2.49-2.44-2.78-4.26h4.17c.5,1.72,2.04,2.58,4.61,2.58,1.68,0,2.97-.39,3.86-1.17.89-.78,1.33-1.9,1.33-3.35v-2.61h-.14c-.48.99-1.21,1.74-2.17,2.26-.97.52-2.12.78-3.45.78-1.64,0-3.07-.36-4.28-1.09s-2.14-1.75-2.81-3.07c-.67-1.32-1-2.89-1-4.71,0-2.72.74-4.88,2.22-6.48,1.48-1.59,3.51-2.39,6.1-2.39,1.43,0,2.65.27,3.67.8,1.01.53,1.82,1.3,2.42,2.3h1.22v-2.75h4.09v3.97h-2v13.07c0,2.44-.78,4.32-2.33,5.65-1.56,1.33-3.76,2-6.62,2ZM663.01,368.79c1.45,0,2.6-.41,3.45-1.23.85-.82,1.27-1.93,1.27-3.32v-1.83c0-1.37-.43-2.47-1.29-3.29s-2.01-1.23-3.44-1.23c-1.6,0-2.86.48-3.75,1.43-.9.96-1.35,2.29-1.35,4.01s.45,3.08,1.35,4.03c.9.95,2.15,1.42,3.75,1.42Z"/>
        <path d="M689.33,372.21l-5.56-17.39h4.06l3.8,12.55h.14l4.43-12.55h3.88l4.46,12.55h.15l3.8-12.55h4l-5.54,17.39h-4.29l-4.49-12.41h-.12l-4.43,12.41h-4.29Z"/>
        <path d="M722.66,372.55c-1.84,0-3.44-.37-4.8-1.12-1.36-.74-2.41-1.8-3.15-3.17-.73-1.37-1.1-2.98-1.1-4.81s.36-3.42,1.09-4.77c.72-1.34,1.75-2.38,3.09-3.12s2.91-1.1,4.72-1.1,3.24.34,4.49,1.03,2.23,1.66,2.91,2.93c.69,1.27,1.03,2.77,1.03,4.51v1.45h-13.57c.15,1.58.69,2.81,1.59,3.67.91.86,2.13,1.29,3.65,1.29,1.12,0,2.04-.21,2.75-.64.71-.42,1.21-1.06,1.48-1.91h4c-.43,1.82-1.36,3.23-2.8,4.25s-3.24,1.52-5.41,1.52ZM717.5,361.63h9.68c-.15-1.27-.64-2.26-1.45-2.94-.81-.69-1.88-1.03-3.22-1.03s-2.44.34-3.3,1.03c-.87.69-1.44,1.67-1.71,2.94Z"/>
        <path d="M739.65,372.52c-1.99,0-3.56-.49-4.71-1.48-1.15-.99-1.72-2.28-1.72-3.88s.58-2.99,1.74-3.91c1.16-.93,2.82-1.39,4.98-1.39h5.51v-.73c0-2.32-1.31-3.48-3.94-3.48-2.22,0-3.56.8-4,2.41h-3.94c.33-1.8,1.18-3.18,2.57-4.15,1.38-.97,3.18-1.45,5.41-1.45,2.49,0,4.4.58,5.71,1.72s1.97,2.82,1.97,5v7.04h1.88v3.97h-4.09v-2.75h-1.22c-.6.97-1.41,1.72-2.43,2.26-1.02.54-2.26.81-3.71.81ZM740.23,369.45c.99,0,1.87-.19,2.67-.58.79-.39,1.41-.9,1.87-1.55s.68-1.37.68-2.16v-.55h-5.3c-2.13,0-3.19.79-3.19,2.38,0,.77.29,1.38.87,1.81.58.44,1.38.65,2.41.65Z"/>
        <path d="M759.24,372.21c-1.06,0-1.89-.27-2.48-.81-.59-.54-.88-1.36-.88-2.46v-11.04h-3.13v-3.07h3.16v-5.22h3.88v5.22h4.32v3.07h-4.29v11.22h4.72v3.1h-5.3Z"/>
        <path d="M767.39,372.21v-24.35h3.94v9.62h.12c.56-.99,1.33-1.73,2.3-2.23.98-.5,2.13-.75,3.46-.75,2.18,0,3.92.65,5.2,1.96s1.93,3.05,1.93,5.23v10.52h-3.94v-9.83c0-1.43-.38-2.52-1.14-3.28-.76-.75-1.89-1.13-3.38-1.13s-2.62.38-3.39,1.13c-.77.75-1.16,1.85-1.16,3.28v9.83h-3.94Z"/>
        <path d="M796.6,372.55c-1.84,0-3.44-.37-4.8-1.12-1.36-.74-2.41-1.8-3.15-3.17-.73-1.37-1.1-2.98-1.1-4.81s.36-3.42,1.09-4.77c.72-1.34,1.75-2.38,3.09-3.12s2.91-1.1,4.72-1.1,3.24.34,4.49,1.03,2.23,1.66,2.91,2.93c.69,1.27,1.03,2.77,1.03,4.51v1.45h-13.57c.15,1.58.69,2.81,1.59,3.67.91.86,2.13,1.29,3.65,1.29,1.12,0,2.04-.21,2.75-.64.71-.42,1.21-1.06,1.48-1.91h4c-.43,1.82-1.36,3.23-2.8,4.25s-3.24,1.52-5.41,1.52ZM791.45,361.63h9.68c-.15-1.27-.64-2.26-1.45-2.94-.81-.69-1.88-1.03-3.22-1.03s-2.44.34-3.3,1.03c-.87.69-1.44,1.67-1.71,2.94Z"/>
        <path d="M809.5,372.21v-13.42h-2v-3.97h4.12v3.33h1.22c.46-1.14,1.2-2.01,2.22-2.61,1.01-.6,2.18-.9,3.49-.9h1.45v3.39h-1.62c-1.64,0-2.88.47-3.72,1.42s-1.26,2.21-1.26,3.8v8.96h-3.88Z"/>
        <path d="M838.49,372.52c-2.32,0-4.12-.63-5.41-1.88-1.29-1.26-1.93-2.97-1.93-5.13v-10.7h3.94v9.91c0,1.43.37,2.51,1.1,3.23.73.72,1.83,1.09,3.27,1.09s2.64-.39,3.46-1.16c.82-.77,1.23-1.85,1.23-3.25v-9.83h3.94v13.42h2v3.97h-4.09v-2.75h-1.22c-.66,1.01-1.5,1.77-2.52,2.29-1.02.52-2.29.78-3.8.78Z"/>
        <path d="M853.79,372.21v-13.42h-2v-3.97h4.12v2.75h1.22c.62-.99,1.44-1.74,2.48-2.27,1.03-.53,2.29-.8,3.75-.8,2.32,0,4.13.65,5.43,1.96,1.3,1.3,1.96,3.05,1.96,5.23v10.52h-3.94v-9.83c0-1.43-.38-2.52-1.15-3.28s-1.89-1.13-3.38-1.13-2.62.38-3.39,1.13-1.16,1.85-1.16,3.28v9.83h-3.94Z"/>
        <path d="M882.23,372.55c-1.76,0-3.26-.37-4.49-1.12-1.24-.74-2.17-1.79-2.81-3.14-.64-1.35-.96-2.95-.96-4.78s.31-3.44.94-4.8c.63-1.36,1.54-2.41,2.72-3.15,1.19-.73,2.6-1.1,4.25-1.1,1.35,0,2.51.26,3.48.77.97.51,1.71,1.24,2.23,2.19h.12v-9.57h3.94v20.38h1.97v3.97h-4.09v-2.75h-1.22c-.6,1.01-1.41,1.77-2.42,2.3-1.01.53-2.24.8-3.67.8ZM882.89,369.16c1.47,0,2.64-.42,3.51-1.25s1.3-1.95,1.3-3.36v-2.09c0-1.41-.44-2.53-1.3-3.36-.87-.83-2.04-1.25-3.51-1.25-1.6,0-2.84.5-3.7,1.51-.86,1.01-1.29,2.39-1.29,4.15s.43,3.14,1.29,4.15c.86,1.01,2.09,1.51,3.7,1.51Z"/>
        <path d="M905.01,372.55c-1.84,0-3.44-.37-4.8-1.12-1.36-.74-2.41-1.8-3.15-3.17-.73-1.37-1.1-2.98-1.1-4.81s.36-3.42,1.09-4.77c.72-1.34,1.75-2.38,3.09-3.12s2.91-1.1,4.72-1.1,3.24.34,4.49,1.03,2.23,1.66,2.91,2.93c.69,1.27,1.03,2.77,1.03,4.51v1.45h-13.57c.15,1.58.69,2.81,1.59,3.67.91.86,2.13,1.29,3.65,1.29,1.12,0,2.04-.21,2.75-.64.71-.42,1.21-1.06,1.48-1.91h4c-.43,1.82-1.36,3.23-2.8,4.25s-3.24,1.52-5.41,1.52ZM899.85,361.63h9.68c-.15-1.27-.64-2.26-1.45-2.94-.81-.69-1.88-1.03-3.22-1.03s-2.44.34-3.3,1.03c-.87.69-1.44,1.67-1.71,2.94Z"/>
        <path d="M917.91,372.21v-13.42h-2v-3.97h4.12v3.33h1.22c.46-1.14,1.2-2.01,2.22-2.61,1.01-.6,2.18-.9,3.49-.9h1.45v3.39h-1.62c-1.64,0-2.88.47-3.72,1.42s-1.26,2.21-1.26,3.8v8.96h-3.88Z"/>
        <path d="M937.82,372.55c-2.47,0-4.43-.52-5.86-1.55s-2.21-2.48-2.35-4.33h3.85c.14.95.57,1.65,1.3,2.12s1.8.7,3.19.7c2.4,0,3.59-.71,3.59-2.15,0-.58-.18-1.03-.55-1.36-.37-.33-.98-.57-1.83-.73l-3.86-.72c-3.34-.64-5.01-2.22-5.01-4.75,0-1.62.64-2.91,1.91-3.87,1.28-.96,3.02-1.44,5.25-1.44s4.02.49,5.35,1.48,2.06,2.36,2.22,4.12h-3.8c-.21-.89-.63-1.55-1.26-1.97-.63-.43-1.53-.64-2.71-.64-1.04,0-1.85.17-2.41.52-.56.35-.84.85-.84,1.51,0,.48.18.87.54,1.17.36.3.92.53,1.7.68l3.88.75c1.76.33,3.04.89,3.86,1.7.81.8,1.22,1.88,1.22,3.23,0,1.74-.64,3.1-1.91,4.07-1.27.98-3.1,1.46-5.48,1.46Z"/>
        <path d="M953.18,372.21c-1.06,0-1.89-.27-2.48-.81-.59-.54-.88-1.36-.88-2.46v-11.04h-3.13v-3.07h3.16v-5.22h3.88v5.22h4.32v3.07h-4.29v11.22h4.72v3.1h-5.3Z"/>
        <path d="M966.69,372.52c-1.99,0-3.56-.49-4.71-1.48-1.15-.99-1.72-2.28-1.72-3.88s.58-2.99,1.74-3.91c1.16-.93,2.82-1.39,4.98-1.39h5.51v-.73c0-2.32-1.31-3.48-3.94-3.48-2.22,0-3.56.8-4,2.41h-3.94c.33-1.8,1.18-3.18,2.57-4.15,1.38-.97,3.18-1.45,5.41-1.45,2.49,0,4.4.58,5.71,1.72s1.97,2.82,1.97,5v7.04h1.88v3.97h-4.09v-2.75h-1.22c-.6.97-1.41,1.72-2.43,2.26-1.02.54-2.26.81-3.71.81ZM967.27,369.45c.99,0,1.87-.19,2.67-.58.79-.39,1.41-.9,1.87-1.55s.68-1.37.68-2.16v-.55h-5.3c-2.13,0-3.19.79-3.19,2.38,0,.77.29,1.38.87,1.81.58.44,1.38.65,2.41.65Z"/>
        <path d="M981.82,372.21v-13.42h-2v-3.97h4.12v2.75h1.22c.62-.99,1.44-1.74,2.48-2.27,1.03-.53,2.29-.8,3.75-.8,2.32,0,4.13.65,5.43,1.96,1.3,1.3,1.96,3.05,1.96,5.23v10.52h-3.94v-9.83c0-1.43-.38-2.52-1.15-3.28s-1.89-1.13-3.38-1.13-2.62.38-3.39,1.13-1.16,1.85-1.16,3.28v9.83h-3.94Z"/>
        <path d="M1010.26,372.55c-1.76,0-3.26-.37-4.49-1.12-1.24-.74-2.17-1.79-2.81-3.14-.64-1.35-.96-2.95-.96-4.78s.31-3.44.94-4.8c.63-1.36,1.54-2.41,2.72-3.15,1.19-.73,2.6-1.1,4.25-1.1,1.35,0,2.51.26,3.48.77.97.51,1.71,1.24,2.23,2.19h.12v-9.57h3.94v20.38h1.97v3.97h-4.09v-2.75h-1.22c-.6,1.01-1.41,1.77-2.42,2.3-1.01.53-2.24.8-3.67.8ZM1010.92,369.16c1.47,0,2.64-.42,3.51-1.25s1.3-1.95,1.3-3.36v-2.09c0-1.41-.44-2.53-1.3-3.36-.87-.83-2.04-1.25-3.51-1.25-1.6,0-2.84.5-3.7,1.51-.86,1.01-1.29,2.39-1.29,4.15s.43,3.14,1.29,4.15c.86,1.01,2.09,1.51,3.7,1.51Z"/>
        <path d="M1027.07,352.73c-.62,0-1.15-.22-1.59-.65-.44-.44-.67-.97-.67-1.61s.22-1.15.65-1.59c.43-.44.97-.67,1.61-.67s1.15.22,1.59.65c.44.44.67.97.67,1.61s-.22,1.15-.65,1.59c-.44.44-.97.67-1.61.67ZM1025.1,372.21v-17.39h3.94v17.39h-3.94Z"/>
        <path d="M1034.46,372.21v-13.42h-2v-3.97h4.12v2.75h1.22c.62-.99,1.44-1.74,2.48-2.27,1.03-.53,2.29-.8,3.75-.8,2.32,0,4.13.65,5.43,1.96,1.3,1.3,1.96,3.05,1.96,5.23v10.52h-3.94v-9.83c0-1.43-.38-2.52-1.15-3.28s-1.89-1.13-3.38-1.13-2.62.38-3.39,1.13-1.16,1.85-1.16,3.28v9.83h-3.94Z"/>
        <path d="M1063.47,379.51c-2.49,0-4.52-.51-6.09-1.54-1.57-1.02-2.49-2.44-2.78-4.26h4.17c.5,1.72,2.04,2.58,4.61,2.58,1.68,0,2.97-.39,3.86-1.17.89-.78,1.33-1.9,1.33-3.35v-2.61h-.14c-.48.99-1.21,1.74-2.17,2.26-.97.52-2.12.78-3.45.78-1.64,0-3.07-.36-4.28-1.09s-2.14-1.75-2.81-3.07c-.67-1.32-1-2.89-1-4.71,0-2.72.74-4.88,2.22-6.48,1.48-1.59,3.51-2.39,6.1-2.39,1.43,0,2.65.27,3.67.8,1.01.53,1.82,1.3,2.42,2.3h1.22v-2.75h4.09v3.97h-2v13.07c0,2.44-.78,4.32-2.33,5.65-1.56,1.33-3.76,2-6.62,2ZM1063.76,368.79c1.45,0,2.6-.41,3.45-1.23.85-.82,1.27-1.93,1.27-3.32v-1.83c0-1.37-.43-2.47-1.29-3.29s-2.01-1.23-3.44-1.23c-1.6,0-2.86.48-3.75,1.43-.9.96-1.35,2.29-1.35,4.01s.45,3.08,1.35,4.03c.9.95,2.15,1.42,3.75,1.42Z"/>
      </g>
      <g>
        <path d="M464.42,318.97v-68.48h11.09v68.48h-11.09Z"/>
        <path d="M492.79,318.97v-40.27h-9.38v-8.64h9.54v-10.19c0-3.15.86-5.5,2.57-7.05,1.71-1.55,4.09-2.32,7.13-2.32h13.78v8.64h-12.64v10.92h11.66v8.64h-11.58v40.27h-11.09Z"/>
        <path d="M525.73,338.54v-57.31h-5.62v-11.17h11.58v7.74h3.42c1.63-2.83,3.89-4.98,6.77-6.48,2.88-1.49,6.33-2.24,10.35-2.24,4.95,0,9.14,1.05,12.6,3.14,3.45,2.09,6.09,5.04,7.91,8.84,1.82,3.8,2.73,8.29,2.73,13.45s-.88,9.66-2.65,13.49c-1.77,3.83-4.32,6.78-7.66,8.85s-7.35,3.1-12.02,3.1c-3.7,0-6.92-.72-9.66-2.16-2.75-1.44-4.85-3.49-6.32-6.15h-.33v26.9h-11.09ZM550.26,310.41c4.57,0,8.06-1.41,10.48-4.24,2.42-2.82,3.63-6.71,3.63-11.66s-1.21-8.83-3.63-11.66c-2.42-2.83-5.91-4.24-10.48-4.24-4.08,0-7.34,1.17-9.78,3.51-2.45,2.34-3.67,5.49-3.67,9.46v5.87c0,3.97,1.22,7.12,3.67,9.46,2.45,2.34,5.71,3.51,9.78,3.51Z"/>
        <path d="M594.29,318.97l-15.65-48.91h11.41l10.68,35.3h.41l12.47-35.3h10.92l12.55,35.3h.41l10.68-35.3h11.25l-15.57,48.91h-12.07l-12.64-34.89h-.33l-12.47,34.89h-12.07Z"/>
        <path d="M688.04,319.95c-5.16,0-9.66-1.05-13.49-3.14-3.83-2.09-6.78-5.07-8.85-8.93-2.07-3.86-3.1-8.37-3.1-13.53s1.02-9.63,3.06-13.41c2.04-3.78,4.93-6.7,8.68-8.76s8.18-3.1,13.29-3.1,9.1.97,12.64,2.9,6.26,4.67,8.19,8.23c1.93,3.56,2.89,7.79,2.89,12.68v4.08h-38.15c.43,4.46,1.93,7.9,4.48,10.31,2.55,2.42,5.98,3.63,10.27,3.63,3.15,0,5.73-.6,7.74-1.79,2.01-1.2,3.4-2.99,4.16-5.38h11.25c-1.2,5.11-3.82,9.09-7.87,11.94-4.05,2.85-9.12,4.28-15.2,4.28ZM673.53,289.21h27.23c-.44-3.59-1.79-6.34-4.08-8.27-2.28-1.93-5.3-2.9-9.05-2.9s-6.85.97-9.29,2.9-4.05,4.69-4.81,8.27Z"/>
        <path d="M735.81,319.87c-5.6,0-10.01-1.39-13.25-4.16-3.23-2.77-4.85-6.41-4.85-10.92s1.63-8.4,4.89-11.01c3.26-2.61,7.93-3.91,14.02-3.91h15.49v-2.04c0-6.52-3.7-9.78-11.09-9.78-6.25,0-10,2.26-11.25,6.77h-11.09c.92-5.05,3.33-8.94,7.22-11.66,3.89-2.72,8.95-4.08,15.2-4.08,7.01,0,12.36,1.62,16.06,4.85,3.7,3.24,5.54,7.92,5.54,14.06v19.81h5.3v11.17h-11.5v-7.74h-3.42c-1.69,2.72-3.97,4.84-6.85,6.36-2.88,1.52-6.36,2.28-10.44,2.28ZM737.44,311.23c2.77,0,5.27-.54,7.5-1.63,2.23-1.09,3.98-2.54,5.26-4.36s1.92-3.84,1.92-6.07v-1.55h-14.92c-5.98,0-8.97,2.23-8.97,6.69,0,2.17.82,3.87,2.45,5.1,1.63,1.22,3.89,1.83,6.77,1.83Z"/>
        <path d="M790.92,318.97c-2.99,0-5.31-.76-6.97-2.28-1.66-1.52-2.49-3.83-2.49-6.93v-31.06h-8.81v-8.64h8.89v-14.67h10.92v14.67h12.15v8.64h-12.07v31.55h13.29v8.72h-14.92Z"/>
        <path d="M813.83,318.97v-68.48h11.09v27.07h.33c1.58-2.77,3.74-4.86,6.48-6.28,2.74-1.41,5.99-2.12,9.74-2.12,6.14,0,11.02,1.83,14.63,5.5,3.61,3.67,5.42,8.57,5.42,14.71v29.59h-11.09v-27.64c0-4.02-1.07-7.09-3.22-9.21-2.15-2.12-5.31-3.18-9.5-3.18s-7.37,1.06-9.54,3.18c-2.17,2.12-3.26,5.19-3.26,9.21v27.64h-11.09Z"/>
        <path d="M896,319.95c-5.16,0-9.66-1.05-13.49-3.14-3.83-2.09-6.78-5.07-8.85-8.93-2.07-3.86-3.1-8.37-3.1-13.53s1.02-9.63,3.06-13.41c2.04-3.78,4.93-6.7,8.68-8.76s8.18-3.1,13.29-3.1,9.1.97,12.64,2.9,6.26,4.67,8.19,8.23c1.93,3.56,2.89,7.79,2.89,12.68v4.08h-38.15c.43,4.46,1.93,7.9,4.48,10.31,2.55,2.42,5.98,3.63,10.27,3.63,3.15,0,5.73-.6,7.74-1.79,2.01-1.2,3.4-2.99,4.16-5.38h11.25c-1.2,5.11-3.82,9.09-7.87,11.94-4.05,2.85-9.12,4.28-15.2,4.28ZM881.49,289.21h27.23c-.44-3.59-1.79-6.34-4.08-8.27-2.28-1.93-5.3-2.9-9.05-2.9s-6.85.97-9.29,2.9-4.05,4.69-4.81,8.27Z"/>
        <path d="M932.28,318.97v-37.74h-5.62v-11.17h11.58v9.38h3.42c1.3-3.21,3.38-5.65,6.24-7.34,2.85-1.68,6.13-2.53,9.82-2.53h4.08v9.54h-4.57c-4.62,0-8.11,1.33-10.48,3.99-2.36,2.66-3.55,6.22-3.55,10.68v25.19h-10.92Z"/>
        <path d="M968.56,319.95c-2.01,0-3.71-.71-5.1-2.12-1.39-1.41-2.08-3.13-2.08-5.14s.69-3.72,2.08-5.14c1.39-1.41,3.08-2.12,5.1-2.12s3.72.71,5.14,2.12c1.41,1.41,2.12,3.13,2.12,5.14s-.71,3.72-2.12,5.14c-1.41,1.41-3.13,2.12-5.14,2.12Z"/>
        <path d="M1006.71,319.95c-5,0-9.38-1.05-13.12-3.14-3.75-2.09-6.67-5.04-8.76-8.85-2.09-3.8-3.14-8.29-3.14-13.45s1.03-9.65,3.1-13.45c2.06-3.8,4.97-6.75,8.72-8.84,3.75-2.09,8.15-3.14,13.21-3.14,6.2,0,11.33,1.55,15.41,4.65s6.71,7.45,7.91,13.04h-11.17c-.82-2.66-2.24-4.67-4.28-6.03-2.04-1.36-4.66-2.04-7.87-2.04-4.29,0-7.69,1.38-10.19,4.16s-3.75,6.66-3.75,11.66,1.25,8.89,3.75,11.66c2.5,2.77,5.9,4.16,10.19,4.16,6.74,0,10.87-2.96,12.39-8.89h11.17c-1.09,5.93-3.67,10.49-7.74,13.7-4.08,3.21-9.35,4.81-15.82,4.81Z"/>
        <path d="M1060.27,319.95c-5.16,0-9.66-1.05-13.49-3.14-3.83-2.09-6.81-5.04-8.93-8.85-2.12-3.8-3.18-8.29-3.18-13.45s1.05-9.65,3.14-13.45c2.09-3.8,5.07-6.75,8.93-8.84,3.86-2.09,8.4-3.14,13.61-3.14s9.81,1.03,13.61,3.1,6.74,5,8.81,8.8c2.06,3.8,3.1,8.32,3.1,13.53s-1.05,9.66-3.14,13.49c-2.09,3.83-5.04,6.78-8.84,8.85-3.81,2.07-8.34,3.1-13.61,3.1ZM1060.27,310.33c4.62,0,8.19-1.41,10.72-4.24s3.79-6.71,3.79-11.66-1.26-8.8-3.79-11.58-6.1-4.16-10.72-4.16-8.13,1.4-10.68,4.2c-2.56,2.8-3.83,6.65-3.83,11.54s1.28,8.83,3.83,11.66c2.55,2.83,6.11,4.24,10.68,4.24Z"/>
        <path d="M1098.01,318.97v-37.74h-5.62v-11.17h11.58v7.74h3.75c1.52-2.77,3.65-4.9,6.4-6.4,2.74-1.49,6.07-2.24,9.99-2.24s7.16.73,9.91,2.2c2.74,1.47,4.96,3.67,6.64,6.6h.24c3.59-5.87,9.18-8.8,16.79-8.8,6.14,0,10.98,1.78,14.51,5.34,3.53,3.56,5.3,8.41,5.3,14.55v29.92h-11.09v-27.96c0-8.04-3.86-12.07-11.58-12.07s-11.58,4.02-11.58,12.07v27.96h-11.09v-27.96c0-8.04-3.89-12.07-11.66-12.07-3.75,0-6.59,1.02-8.52,3.06-1.93,2.04-2.89,5.04-2.89,9.01v27.96h-11.09Z"/>
      </g>
    </g>
    <g>
      <rect x="177.1" y="118.15" width="12.22" height="130.36" transform="translate(-47.85 65.91) rotate(-18.08)"/>
      <rect x="138.52" y="137.87" width="12.22" height="130.36" transform="translate(-91.83 124.1) rotate(-36.08)"/>
      <rect x="107.93" y="168.55" width="12.22" height="130.36" transform="translate(-142.14 188.92) rotate(-54.07)"/>
      <rect x="88.3" y="207.17" width="12.22" height="130.36" transform="translate(-193.78 278.32) rotate(-72.07)"/>
      <rect x="22.51" y="309.04" width="130.36" height="12.22" transform="translate(-.35 .1) rotate(-.06)"/>
      <rect x="29.33" y="351.82" width="130.36" height="12.22" transform="translate(-106.3 46.93) rotate(-18.06)"/>
      <rect x="49.04" y="390.41" width="130.36" height="12.22" transform="translate(-211.5 143.17) rotate(-36.05)"/>
      <rect x="79.7" y="421.01" width="130.36" height="12.22" transform="translate(-285.95 293.66) rotate(-54.05)"/>
      <rect x="118.32" y="440.65" width="130.36" height="12.22" transform="translate(-298.07 483.61) rotate(-72.05)"/>
      <rect x="220.18" y="388.32" width="12.22" height="130.36"/>
      <rect x="262.97" y="381.52" width="12.22" height="130.36" transform="translate(-125.09 105.27) rotate(-18.04)"/>
      <rect x="301.56" y="361.82" width="12.22" height="130.36" transform="translate(-192.32 262.69) rotate(-36.03)"/>
      <rect x="332.18" y="331.17" width="12.22" height="130.36" transform="translate(-181.19 437.33) rotate(-54.03)"/>
      <rect x="351.83" y="292.56" width="12.22" height="130.36" transform="translate(-92.8 587.81) rotate(-72.03)"/>
      <rect x="358.59" y="249.77" width="12.22" height="130.36" transform="translate(679.51 -49.87) rotate(89.98)"/>
      <rect x="292.73" y="266.05" width="130.36" height="12.22" transform="translate(-66.63 124.04) rotate(-18.02)"/>
      <rect x="273.05" y="227.45" width="130.36" height="12.22" transform="translate(-72.69 243.5) rotate(-36.01)"/>
      <rect x="242.41" y="196.82" width="130.36" height="12.22" transform="translate(-37.37 332.55) rotate(-54.01)"/>
      <rect x="203.8" y="177.16" width="130.36" height="12.22" transform="translate(11.58 382.47) rotate(-72)"/>
      <rect x="220.08" y="111.31" width="12.22" height="130.36"/>
      <g>
        <path d="M175.31,345.28v-66.55h10.77v66.55h-10.77Z"/>
        <path d="M202.88,345.28v-39.14h-9.11v-8.4h9.27v-9.9c0-3.06.83-5.35,2.5-6.85,1.66-1.51,3.97-2.26,6.93-2.26h13.39v8.4h-12.28v10.62h11.33v8.4h-11.25v39.14h-10.77Z"/>
        <path d="M234.89,364.29v-55.7h-5.46v-10.85h11.25v7.53h3.33c1.58-2.75,3.77-4.85,6.57-6.3,2.8-1.45,6.16-2.18,10.06-2.18,4.8,0,8.89,1.02,12.24,3.05,3.35,2.03,5.91,4.9,7.68,8.6s2.66,8.05,2.66,13.07-.86,9.39-2.58,13.11c-1.72,3.72-4.2,6.59-7.45,8.6-3.25,2.01-7.14,3.01-11.68,3.01-3.59,0-6.72-.7-9.39-2.1-2.66-1.4-4.71-3.39-6.14-5.98h-.32v26.15h-10.77ZM258.74,336.96c4.44,0,7.83-1.37,10.18-4.12,2.35-2.75,3.53-6.52,3.53-11.33s-1.18-8.58-3.53-11.33-5.74-4.12-10.18-4.12c-3.96,0-7.13,1.14-9.51,3.41-2.38,2.27-3.57,5.33-3.57,9.19v5.71c0,3.86,1.19,6.92,3.57,9.19,2.38,2.27,5.55,3.41,9.51,3.41Z"/>
      </g>
    </g>
  </g>
  <image class="cls-2" width="6000" height="4000" transform="translate(-4.5 -156.5) scale(.21)" xlink:href="T:\olympic\user\files\ps_textures\SG Dirt Textures\PNG\SG-Dirt-Texture-03.png"/>
</svg>